<?xml version="1.0" encoding="utf-8"?>
<!-- Generator: Adobe Illustrator 25.0.0, SVG Export Plug-In . SVG Version: 6.00 Build 0)  -->
<svg version="1.1" id="Layer_1" xmlns="http://www.w3.org/2000/svg" xmlns:xlink="http://www.w3.org/1999/xlink" x="0px" y="0px"
	 viewBox="0 0 500 500" style="enable-background:new 0 0 500 500;" xml:space="preserve">
<g>
	<path d="M250,5.65C115.05,5.65,5.65,115.05,5.65,250S115.05,494.35,250,494.35S494.35,384.95,494.35,250S384.95,5.65,250,5.65z
		 M371.58,274.04c-0.82,10.66-2.63,21.1-6.76,31.07c-8.12,19.58-23.77,29.95-43.27,35.52c-17.26,4.93-35,5.86-52.82,5.94
		c-5.72,0.03-11.43,0-17.15,0c-20.8,0.06-41.62,0.33-62.14-3.98c-16.76-3.52-32.34-9.46-43.88-22.94
		c-10.1-11.79-14.15-26.2-16.33-41.08c-3.91-26.64,0.92-51.31,18.36-72.59c1.84-2.24,0.95-4.09,0.42-6.17
		c-3.72-14.69-4.59-29.16,2.87-43.15c1.28-2.4,2.51-3.42,5.39-3.41c17.86,0.05,34.18,4.74,48.43,15.74c2.43,1.88,4.69,2.04,7.5,1.46
		c26.13-5.44,52.29-5.79,78.44-0.18c2.27,0.49,3.84,0.14,5.65-1.25c14.28-10.93,30.54-15.75,48.43-15.77c3.04,0,4.35,1.05,5.72,3.62
		c7.24,13.54,6.44,27.58,2.91,41.78c-0.82,3.31-0.78,5.66,1.49,8.59C370.09,227.01,373.44,249.91,371.58,274.04z"/>
	<path d="M338.7,278.56c-2.37-17.36-14.25-30.48-30.33-33.02c-8.39-1.33-16.81-0.21-25.12,1.1c-18.43,2.92-36.87,4.48-55.43,1.4
		c-9.4-1.56-18.83-2.89-28.38-2.93c-15.14-0.06-26.17,6.86-32.84,20.35c-13.1,26.49-0.87,56.33,26.89,66
		c2.84,0.99,5.74,1.84,8.66,2.55c15.89,3.84,32.09,3.82,48.28,3.65c15.09,0.19,30.16,0.09,45.07-2.75
		C327.44,328.81,342.83,308.76,338.7,278.56z M215.82,307.94c-6.51,8.43-16.84,8.48-23.57,0.22c-9.12-11.19-8.96-32.5,0.31-43.63
		c6.34-7.61,16.24-7.77,22.64-0.17c5.35,6.36,7.14,14.02,7.38,22.07C222.37,294.31,220.67,301.66,215.82,307.94z M309.2,307.93
		c-6.51,8.45-16.83,8.51-23.56,0.25c-9.12-11.19-8.99-32.52,0.27-43.63c6.47-7.76,16.6-7.77,22.95,0.15
		c5.18,6.47,6.94,14.13,7.08,22.29C315.61,294.58,313.93,301.78,309.2,307.93z"/>
	<path d="M250,196.32"/>
</g>
</svg>
